#
*********** ****    ****      ***      ******** *********** ****    *** **********
#
 
#
         *+*     +*+*+* *+*+*+   *+* *+*   *+*    *+*    *+*     *+*+*   *+* *+*        
#
 
#
         +*+     +*+ +*+*+ +*+  +*+   +*+  +*+           +*+     *+*+*+  +*+ +*+        
#
 
#
         +$+     +$+  +*+  +$+ +$++*++$++* *$*           +$+     +$+ +*+ +$+ +$++*++$  
#
 
#
         +$+     +$+       +$+ +$+     +$+ +$+   +$+$    +$+     +$+  +$+$+$ +$+        
#
 
#
         $+$     $+$       $+$ $+$     $+$ $+$    $+$    $+$     $+$   $+$+$ $+$        
#
 
#
     $$$$$$$$$$$ $$$       $$$ $$$     $$$  $$$$$$$$ $$$$$$$$$$$ $$$    $$$$ $$$$$$$$$$    
#
 
#
                                             
#
 
#
 
#
 
#
 
#
 
#
 
#
 
#
                         Another Fine Release Brought to you from - IMAGiNE                  
#
 
#
                                             
#
 
#
 
#
 
#
********************************************************************************************************************                                
#
 
#
                     The Tourist 2010 CAM READNFO XViD - IMAGiNE
#
 
#
********************************************************************************************************************
#
 
#
 
#
 
#
Ripper ...........: IMAGiNE                                        IMDB Rating.......:6.0/10                            
#
 
#
Video Codec.......: XVID                                         Release Date......:19/12/10
#
 
#
Audio Codec.......:MP3                                           Theatre Date......:10/12/10
#
 
#
Audio Bitrate.....:128                                              Runtime.......:1h 35mn
#
 
#
Subtitles.........:ENG when needed                     Language..........:ENGLISH
#
 
#
Resolution...... 720 x 304                                      IMDb URL.......... http://www.imdb.com/title/tt1243957/
#
 
#
 
#
 
#
 
#
 
#
DETAILS:
#
 
#
 
#
 
#
Video
#
 
#
ID                               : 0
#
 
#
Format                           : MPEG-4 Visual
#
 
#
Format profile                   : Advanced Simple@L5
#
 
#
Format settings, BVOP            : Yes
#
 
#
Format settings, QPel            : No
#
 
#
Format settings, GMC             : No warppoints
#
 
#
Format settings, Matrix          : Default (H.263)
#
 
#
Muxing mode                      : Packed bitstream
#
 
#
Codec ID                         : XVID
#
 
#
Codec ID/Hint                    : XviD
#
 
#
Duration                         : 1h 35mn
#
 
#
Bit rate                         : 925 Kbps
#
 
#
Width                            : 720 pixels
#
 
#
Height                           : 304 pixels
#
 
#
Display aspect ratio             : 2.35:1
#
 
#
Frame rate                       : 25.000 fps
#
 
#
Color space                      : YUV
#
 
#
Chroma subsampling               : 4:2:0
#
 
#
Bit depth                        : 8 bits
#
 
#
Scan type                        : Progressive
#
 
#
Bits/(Pixel*Frame)               : 0.169
#
 
#
Stream size                      : 635 MiB (87%)
#
 
#
Writing library                  : XviD 1.1.2 (UTC 2006-11-01)
#
 
#
 
#
 
#
Audio
#
 
#
ID                               : 1
#
 
#
Format                           : MPEG Audio
#
 
#
Format version                   : Version 1
#
 
#
Format profile                   : Layer 3
#
 
#
Codec ID                         : 55
#
 
#
Codec ID/Hint                    : MP3
#
 
#
Duration                         : 1h 35mn
#
 
#
Bit rate mode                    : Constant
#
 
#
Bit rate                         : 128 Kbps
#
 
#
Channel(s)                       : 2 channels
#
 
#
Sampling rate                    : 44.1 KHz
#
 
#
Stream size                      : 87.8 MiB (12%)
#
 
#
Alignment                        : Split accross interleaves
#
 
#
Interleave, duration             : 40 ms (1.00 video frame)
#
 
#
Interleave, preload duration     : 500 ms
#
 
#
 
#
 
#
 
#
 
#
SOURCES:
#
 
#
 
#
 
#
VIDEO:SERENiTY  Thanks guys
#
 
#
AUDIO:Lu          Thanks m8ty
#
 
#
 
#
 
#
NOTES:
#
 
#
 
#
 
#
IMAGiNE bringing you another release..........The Tourist 2010
#
 
#
 
#
 
#
Right here we go with our release of this .......video used,the same as everyone else Serenity's and we must add
#
 
#
top stuff guys
#
 
#
Audio is Lu's cam .....but hopefully some nice line might appeat sooner than later,but for now .....
#
 
#
Workdone .....the video was nice really nice,but colours were off and also english subs were missing.
#
 
#
So we firstly created a .srt file to replace the non english subs and add them to our script along with a white balance,rgb eq,sharpness
#
 
#
resize,contrast and brightness.
#
 
#
The audio we filtered it a touch to try and bring the voices out more and add some bass ......still nothing special but better nothing
#
  
http://img819.imageshack.us/img819/4848/thetourist2010camreadnf.jpg